<?xml version="1.0" encoding="utf-8" ?>
<svg baseProfile="full" height="85px" version="1.1" viewBox="0 0 262 85" width="262px" xmlns="http://www.w3.org/2000/svg" xmlns:ev="http://www.w3.org/2001/xml-events" xmlns:xlink="http://www.w3.org/1999/xlink"><defs /><path fill="black" d="M56,16 C55,16 54,16.5 54,17 L29,17 C28.5,17 28,17.5 28,18 L28,19 C28,19.5 28.5,20 29,20 L54,20 C54.5,20 55,20.5 55,20.5 L55,24 C55,24.5 54.5,25 54,25 L53,25 C52.5,25 50,26.5 50,27 L50,28 C50,28.5 49.5,29 49,29 L49,41 C49,41.5 49.5,42 50,42 L50,43 C50,43.5 50.5,44 51,44 L52,44 C52.5,44 54,44.5 54,45 L60,45 C60.5,45 64,42.5 64,42 L64,41 C64,40.5 64.5,40 65,40 L65,37 C65,36.5 65.5,36 66,36 L89,36 C89.5,36 90,36.5 90,37 L90,38 C90,38.5 90.5,38 91,38 L91,40 C91,40.5 91.5,40 92,40 L92,41 C92,41.5 92.5,41 93,41 L95,41 C95.5,41 97,42.5 97,43 L98,43 C98.5,43 108,43 108,43 L109,43 C109.5,43 109,43.5 109,44 L109,49 C109,49.5 109.5,49 110,49 L110,50 C110,50.5 107.5,52 107,52 L106,52 C105.5,52 100,56.5 100,57 L100,57 C100,57.5 98.5,59 98,59 L98,60 C98,60.5 97.5,60 97,60 L97,62 C97,62.5 96.5,63 96,63 L96,65 C96,65.5 95.5,66 95,66 L95,69 C95,69.5 94.5,70 94,70 L88,70 C87.5,70 87,70.5 87,70 L88,70.5 C88,71 88.5,71.5 88,72 L104,72 C104.5,72 105,71.5 105,71 L105,69 C105,68.5 99.5,69 99,69 L98,69 C97.5,69 98,68.5 98,68 L98,66 C98,65.5 98.5,65 99,65 L99,63 C99,62.5 99.5,63 100,63 L100,62 C100,61.5 100.5,61 101,61 L101,60 C101,59.5 101.5,60 102,60 L102,59 C102,58.5 109,53.5 109,54 L110,54 C110.5,54 111,53.5 111,53 L115,56 C115.5,56 116,56 116,56 L118,56 C118.5,56 120,56.5 120,57 L121,57 C121.5,57 124,57.5 124,58 L125,58 C125.5,58 138,58.5 138,59 L139,59 C139.5,59 142,58.5 142,58 L143,58 C143.5,58 145,57.5 145,57 L147,57 C147.5,57 148,56.5 148,56 L149,56 C149.5,56 149,55.5 149,55 L149,54 C149,53.5 151,53 151,53 L152,53 C152.5,53 154,53.5 154,54 L155,54 C155.5,54 160,58 160,58 L160,59 C160,59.5 162,60.5 162,60 L162,61 C162,61.5 163,62 163,62 L163,63 C163,63.5 164,64 164,64 L164,67 C164,67.5 165,68 165,68 L165,69 C165,69.5 164.5,69 164,69 L158,69 C157.5,69 157,69.5 157,70 L158,70.5 C158,71 158.5,71.5 158,72 L174,72 C174.5,72 175,71.5 175,71 L175,69 C175,68.5 169.5,69 169,69 L168,69 C167.5,69 168,68.5 168,68 L168,67 C168,66.5 167.5,66 167,66 L167,63 C167,62.5 166.5,62 166,62 L166,59 C166,58.5 164.5,59 164,59 L164,58 C164,57.5 162.5,57 162,57 L162,56 C162,55.5 157.5,52 157,52 L156,52 C155.5,52 153,50.5 153,50 L153,48 C153,47.5 153.5,48 154,48 L154,44 C154,43.5 154.5,43 155,43 L164,43 C164.5,43 165,43 165,43 L168,43 C168.5,43 171,40.5 171,40 L171,40 C171,39.5 171.5,39 172,39 L172,37 C172,36.5 174,36 174,36 L197,36 C197.5,36 198,36.5 198,37 L198,40 C198,40.5 198.5,40 199,40 L199,42 C199,42.5 199.5,43 200,43 L200,43 C200,43.5 200.5,43 201,43 L203,43 C203.5,43 209,44.5 209,45 L210,45 C210.5,45 211,44.5 211,44 L212,44 C212.5,44 212,43.5 212,43 L212,42 C212,41.5 214,41 214,41 L214,28 C214,27.5 213.5,28 213,28 L213,27 C213,26.5 210.5,25 210,25 L209,25 C208.5,25 208,24.5 208,24 L208,20 C208,19.5 208.5,20 209,20 L234,20 C234.5,20 235,19.5 235,19 L235,18 C235,17.5 234.5,17 234,17 L209,17 C208.5,17 207,16.5 207,16 L205,16 C204.5,16 205,16 205,16 L204,16 C203.5,16 179,16.5 179,17 L178,17 C177.5,17 178,17.5 178,18 L178,19 C178,19.5 204,19 204,19 L205,19 C205.5,19 205,19.5 205,20 L205,24 C205,24.5 204.5,25 204,25 L202,25 C201.5,25 199,26.5 199,27 L199,28 C199,28.5 198.5,29 198,29 L198,33 C198,33.5 197.5,34 197,34 L174,34 C173.5,34 173,33.5 173,33 L173,32 C173,31.5 172.5,31 172,31 L172,30 C172,29.5 170.5,28 170,28 L170,28 C169.5,28 169,28 169,28 L167,28 C166.5,28 96,26.5 96,26 L94,26 C93.5,26 93,27.5 93,28 L91,28 C90.5,28 91,29 91,29 L91,31 C91,31.5 90.5,31 90,31 L90,33 C90,33.5 89.5,34 89,34 L66,34 C65.5,34 65,33.5 65,33 L65,29 C65,28.5 64.5,28 64,28 L64,27 C64,26.5 61.5,25 61,25 L59,25 C58.5,25 58,24.5 58,24 L58,20 C58,19.5 58.5,20 59,20 L85,20 C85.5,20 85,18.5 85,18 L84,18 C83.5,18 59,17.5 59,17 L58,17 C57.5,17 58,16.5 58,16 Z" /><rect fill="white" height="12" rx="2" ry="2" width="16" x="123" y="36" /><rect fill="black" height="8" width="10" x="126" y="38" /></svg>